<svg xmlns="http://www.w3.org/2000/svg" width="32" height="31" fill="none" viewBox="0 0 32 31"><path fill="#fff" d="M5.839 6.326h19.95v19.95H5.839z"/><path fill="url(#a)" fill-rule="evenodd" d="M12.483.183C6.265 1.49 1.543 6.225.229 12.473c-.275 1.309-.31 4.352-.065 5.733.742 4.19 3.28 8.036 6.826 10.343 1.52.99 2.763 1.551 4.63 2.092 1.105.32 1.624.366 4.026.358 2.528-.009 2.877-.046 4.204-.453 3.717-1.14 6.74-3.37 8.745-6.452.99-1.521 1.55-2.764 2.092-4.631.32-1.104.366-1.623.358-4.025-.009-2.529-.047-2.878-.454-4.205C28.918 5.773 24.933 1.906 19.36.335 18.065-.03 13.932-.12 12.483.183m8.524 7.545a4.6 4.6 0 0 1 2.251 2.153l.416.836v4.643c0 5.403-.064 5.754-1.293 6.983-1.25 1.25-1.606 1.312-7.17 1.254l-4.756-.05-.753-.442a4.66 4.66 0 0 1-1.939-2.154c-.251-.566-.295-1.268-.339-5.433-.05-4.738-.047-4.791.329-5.547.415-.836 1.557-1.981 2.258-2.264.952-.386 1.727-.431 5.96-.348 3.672.073 4.485.132 5.036.37m-9.254 1.13c-1.117.272-2.026 1.008-2.617 2.12-.263.495-.309 1.036-.356 4.256-.062 4.195.054 4.846 1.041 5.863 1.116 1.149 1.138 1.153 5.756 1.153h4.15l.793-.49a4.2 4.2 0 0 0 1.285-1.285l.49-.794.052-3.79c.06-4.383-.046-4.952-1.121-6.027-1.04-1.04-1.629-1.16-5.569-1.141-1.88.01-3.636.07-3.904.135m8.868 1.577c.743.672-.028 1.951-.93 1.54-.22-.1-.483-.363-.583-.583-.404-.887.77-1.63 1.512-.957m-3.325 1.245c1.522.787 2.322 2.11 2.318 3.839-.002 1.23-.344 2.108-1.124 2.889-2.69 2.69-7.022.857-7.037-2.978-.007-1.717 1.082-3.273 2.714-3.876.819-.302 2.426-.238 3.13.126m-2.867 1.264c-.995.397-1.637 1.396-1.646 2.563-.017 2.175 2.238 3.476 4.16 2.4.757-.422 1.379-1.5 1.379-2.388s-.622-1.966-1.379-2.39c-.695-.388-1.8-.47-2.514-.185" clip-rule="evenodd"/><defs><linearGradient id="a" x1="5.271" x2="25.952" y1="4.055" y2="26.925" gradientUnits="userSpaceOnUse"><stop stop-color="#fbd525"/><stop offset=".32" stop-color="#ff8064"/><stop offset=".52" stop-color="#eb1c81"/><stop offset="1" stop-color="#711cce"/></linearGradient></defs></svg>