<svg width="40" height="40" viewBox="0 0 40 40" fill="none" xmlns="http://www.w3.org/2000/svg">
<rect x="0.5" y="0.5" width="39" height="39" rx="19.5" stroke="#EEEEEE"/>
<path d="M19.3834 27.6772C14.8428 21.0947 14 20.4192 14 18C14 14.6863 16.6863 12 20 12C23.3137 12 26 14.6863 26 18C26 20.4192 25.1572 21.0947 20.6166 27.6772C20.3187 28.1076 19.6813 28.1076 19.3834 27.6772ZM20 20.5C21.3807 20.5 22.5 19.3807 22.5 18C22.5 16.6193 21.3807 15.5 20 15.5C18.6193 15.5 17.5 16.6193 17.5 18C17.5 19.3807 18.6193 20.5 20 20.5Z" fill="black"/>
</svg>
