<svg xmlns="http://www.w3.org/2000/svg" width="40" height="40" fill="none" viewBox="0 0 40 40"><rect width="39" height="39" x=".5" y=".5" stroke="#eee" rx="19.5"/><path fill="#000" fill-rule="evenodd" d="M13.098 14.048a1.52 1.52 0 0 0-.961.81c-.098.207-.116.278-.129.528-.022.434.087.752.364 1.06.154.17 6.865 4.644 7.116 4.743.267.105.76.105 1.028 0 .198-.078 6.823-4.474 7.046-4.675.462-.418.574-1.133.27-1.732a1.7 1.7 0 0 0-.598-.602c-.36-.193.114-.181-7.247-.18-5.77.003-6.744.01-6.889.048m-1.09 7.073.009 3.77.116.243c.135.281.385.55.636.685.36.193-.111.18 7.233.18s6.873.013 7.233-.18c.213-.114.491-.394.597-.602.177-.348.17-.182.17-4.173v-3.69l-3.43 2.286c-3.611 2.407-3.642 2.426-4.115 2.513a3.2 3.2 0 0 1-.91 0c-.473-.087-.504-.106-4.115-2.513L12 17.352z" clip-rule="evenodd"/></svg>