<svg xmlns="http://www.w3.org/2000/svg" width="40" height="40" fill="none" viewBox="0 0 40 40"><rect width="39" height="39" x=".5" y=".5" stroke="#eee" rx="19.5"/><path fill="#000" fill-rule="evenodd" d="M15.31 12.054c-.298.14-.58.367-1.097.885-.883.883-1.767 2.033-2.103 2.735-.13.27-.137.38-.061.852.25 1.543 1.123 3.406 2.4 5.124a20.2 20.2 0 0 0 3.898 3.898c1.192.886 2.503 1.606 3.668 2.015.716.25 1.535.437 1.924.437.718 0 3.553-2.34 3.994-3.297.102-.222.088-.457-.043-.723-.124-.254-.375-.47-1.153-.99-.872-.584-1.46-.936-2.066-1.239-1.237-.617-1.472-.57-2.35.46-.492.578-.44.544-.692.453a9 9 0 0 1-.643-.287 7.3 7.3 0 0 1-3.262-3.148c-.14-.26-.457-1.002-.457-1.07 0-.015.206-.206.459-.425.769-.666.922-.872.922-1.24 0-.455-.477-1.437-1.374-2.83-.467-.724-.802-1.194-.962-1.35-.284-.277-.724-.39-1.003-.26" clip-rule="evenodd"/></svg>