<svg xmlns="http://www.w3.org/2000/svg" width="32" height="31" fill="none" viewBox="0 0 32 31"><path fill="#fff" d="M6 6h19v18H6z"/><path fill="#039be5" fill-rule="evenodd" d="M13.606.08C9.119.69 5.009 3.249 2.616 6.919c-3.478 5.336-3.489 11.817-.03 17.11 5.344 8.175 16.877 9.37 23.87 2.474 6.067-5.984 6.097-15.826.067-21.949C24.4 2.4 21.389.803 18.374.235c-1.227-.232-3.63-.31-4.768-.154m9.548 9.608c.155.339.094.833-.38 3.106-1.599 7.67-2.148 10.098-2.353 10.412-.383.587-.854.421-2.775-.973-.998-.725-1.914-1.413-2.034-1.528-.187-.18-.384-.053-1.343.858-1.27 1.207-1.8 1.387-1.673.57.043-.275.121-1.173.175-1.997l.097-1.498 1.638-1.494c.901-.821 2.55-2.317 3.666-3.323 1.114-1.007 1.995-1.862 1.955-1.902-.09-.09-2.159 1.181-8.734 5.362l-.602.383-1.392-.417c-2.77-.83-3.077-.959-3.128-1.318-.065-.46.254-.64 3.04-1.707 2.697-1.034 9.014-3.478 11.198-4.333 1.823-.713 2.392-.757 2.645-.201" clip-rule="evenodd"/></svg>