<svg xmlns="http://www.w3.org/2000/svg" width="31" height="31" fill="none" viewBox="0 0 31 31"><path fill="#fff" d="M7 6h19v19H7z"/><path fill="#665cac" fill-rule="evenodd" d="M14.524.014c-1.28.11-2.36.302-3.39.601C6.11 2.075 2.063 6.123.603 11.148.172 12.63 0 13.87 0 15.508s.171 2.878.602 4.36c1.408 4.845 5.19 8.76 10.016 10.369 1.607.536 3.034.76 4.846.763 1.67.002 2.895-.165 4.39-.6 3.984-1.157 7.417-3.969 9.372-7.673 1.205-2.285 1.76-4.56 1.76-7.22 0-3.49-1.009-6.524-3.1-9.326C25.43 2.888 21.732.72 17.558.13c-.632-.09-2.51-.162-3.033-.117m4.034 7.475c2.068.57 3.596 2.118 4.139 4.196.135.52.154.733.182 2.124.047 2.303-.059 3.054-.585 4.156-.765 1.6-2.095 2.68-3.857 3.134-.422.109-.727.129-2.336.154l-1.85.029-1.217 1.208c-1.673 1.66-1.665 1.663-1.665-.43v-1.366l-.459-.27c-1.523-.899-2.567-2.556-2.753-4.37-.08-.778-.082-2.897-.003-3.58.233-2.023 1.374-3.658 3.185-4.563 1.088-.543 1.439-.59 4.338-.57 2.254.014 2.424.023 2.881.148m-2.78 2.175c-.023.022-.04.117-.04.211 0 .197.034.21.736.259 1.395.099 2.531 1.04 2.936 2.432.082.281.098.51.075 1.073-.023.545-.011.732.05.782.126.105.289.039.384-.157.133-.272.121-1.413-.019-1.88-.392-1.305-1.459-2.346-2.735-2.669-.363-.092-1.312-.127-1.387-.05m-3.295.873c-.25.051-.46.207-.907.673-.503.524-.59.71-.587 1.244.01 1.518 1.604 3.859 3.706 5.437.653.491 1.758 1.071 2.267 1.19.39.091.923.084 1.158-.017.108-.046.445-.34.751-.654.627-.642.709-.83.54-1.234-.106-.253-1.294-1.502-1.563-1.643-.403-.21-.84-.037-1.08.43-.369.718-1.109.69-2.01-.074-.693-.587-1.205-1.379-1.204-1.862a.82.82 0 0 1 .513-.77c.442-.194.63-.518.55-.946-.034-.18-.188-.37-.81-.993-.806-.806-.907-.866-1.324-.78m3.325.232c-.046.029-.072.127-.06.226.02.175.02.176.538.211.916.063 1.528.458 1.912 1.234.186.377.222.517.236.914.011.318.044.486.1.522.372.235.534-.326.325-1.126-.313-1.203-1.362-2.036-2.559-2.034-.226.001-.447.024-.492.053m.212 1.079c-.066.066-.046.293.033.372.04.04.147.073.238.073.512 0 .954.427 1.052 1.016.034.205.073.266.19.295.18.045.327-.066.327-.246 0-.53-.425-1.168-.936-1.407-.292-.135-.812-.195-.904-.103" clip-rule="evenodd"/></svg>